<svg xmlns="http://www.w3.org/2000/svg" viewBox="0 0 160.26 46.22">
  <defs>
    <style>
      .cls-1 {
        fill: #383838;
      }

      .cls-2 {
        fill: #6d6d6d;
      }

      .cls-3 {
        fill: #eaeae9;
      }

      .cls-4 {
        fill: #fff;
      }

      .cls-5 {
        fill: #ff8500;
      }
    </style>
  </defs>
  <g id="Layer_2" data-name="Layer 2">
    <g id="logos">
      <g>
        <polygon class="cls-1" points="51.6 18.58 51.6 4.51 60.52 4.51 60.52 6.3 53.42 6.3 53.42 10.66 59.13 10.66 59.13 12.43 53.42 12.43 53.42 18.58 51.6 18.58"/>
        <path class="cls-1" d="M67.61,18.79A5.57,5.57,0,0,1,62,13.05,5.69,5.69,0,0,1,71.67,9l.09-1.45h1.61v11H71.73l-.07-1.43A5.56,5.56,0,0,1,67.61,18.79Zm.06-9.69a3.83,3.83,0,0,0-3.89,4,3.84,3.84,0,0,0,3.89,4,3.79,3.79,0,0,0,3.88-4A3.79,3.79,0,0,0,67.67,9.1Z"/>
        <path class="cls-1" d="M83.87,18.58V12.29c0-2.06-1-3.24-2.82-3.24a3.27,3.27,0,0,0-3.16,3.29v6.24h-1.8v-11h1.53l.11,1.29a4.83,4.83,0,0,1,3.53-1.5c2.64,0,4.41,1.92,4.41,4.78v6.48Z"/>
        <path class="cls-1" d="M93.21,18.79a5.58,5.58,0,0,1-5.66-5.74A5.7,5.7,0,0,1,97.27,9l.08-1.45H99v11H97.33l-.07-1.43A5.56,5.56,0,0,1,93.21,18.79Zm.06-9.69a3.84,3.84,0,0,0-3.9,4,3.84,3.84,0,0,0,3.9,4,3.79,3.79,0,0,0,3.88-4A3.79,3.79,0,0,0,93.27,9.1Z"/>
        <path class="cls-1" d="M55.74,35.44c-3.08,0-5.15-1.82-5.15-4.53v-.44h1.85v.44c0,1.65,1.29,2.72,3.29,2.72,1.79,0,3-1,3-2.39s-1.52-1.9-3.28-2.3c-2.06-.46-4.62-1-4.62-3.91,0-2.41,1.87-4,4.76-4s4.64,1.65,4.64,4.19v.44H58.45v-.44c0-1.45-1.11-2.39-2.84-2.39S52.7,23.69,52.7,25c0,1.47,1.51,1.8,3.26,2.19,2.19.51,4.67,1.08,4.67,4C60.63,33.75,58.66,35.44,55.74,35.44Z"/>
        <path class="cls-1" d="M63.54,38V24.23h1.51l.13,1.5A5.63,5.63,0,0,1,69.26,24a5.5,5.5,0,0,1,5.63,5.74,5.5,5.5,0,0,1-5.63,5.73A5.58,5.58,0,0,1,65.34,34v4ZM69.2,25.8a4,4,0,0,0,0,7.91,3.79,3.79,0,0,0,3.88-3.95A3.79,3.79,0,0,0,69.2,25.8Z"/>
        <path class="cls-1" d="M81.94,35.57a5.57,5.57,0,0,1-5.66-5.74A5.71,5.71,0,0,1,86,25.75l.08-1.44h1.61V35.36H86.05L86,33.93A5.59,5.59,0,0,1,81.94,35.57Zm.06-9.7a4,4,0,0,0,0,7.92,3.79,3.79,0,0,0,3.87-4A3.79,3.79,0,0,0,82,25.87Z"/>
        <path class="cls-1" d="M90.82,35.36v-11h1.54l.1,1.22a4.23,4.23,0,0,1,3.14-1.26h1.32V26H95.53c-1.76,0-2.9,1.26-2.9,3.23v6.1Z"/>
        <path class="cls-1" d="M103.61,35.57A5.54,5.54,0,0,1,98,29.82a5.53,5.53,0,0,1,5.57-5.72,5.47,5.47,0,0,1,5.48,5.7c0,.13,0,.26,0,.39l0,.41H99.89A3.79,3.79,0,0,0,107,31.75l.13-.23H109l-.28.62A5.45,5.45,0,0,1,103.61,35.57Zm3.62-6.72a3.57,3.57,0,0,0-3.62-3,3.69,3.69,0,0,0-3.68,3Z"/>
        <path class="cls-1" d="M117.38,35.57a5.59,5.59,0,0,1-4-1.63l-.09,1.42h-1.59V21.59h1.8v4a5.55,5.55,0,0,1,3.21-1.47l.13,0h.57A5.5,5.5,0,0,1,123,29.83,5.5,5.5,0,0,1,117.38,35.57Zm-.07-9.7a4,4,0,0,0,0,7.92,3.79,3.79,0,0,0,3.88-4A3.79,3.79,0,0,0,117.31,25.87Z"/>
        <path class="cls-1" d="M130.18,35.57a5.57,5.57,0,0,1-5.65-5.74,5.7,5.7,0,0,1,9.71-4.08l.09-1.44h1.61V35.36H134.3l-.07-1.43A5.6,5.6,0,0,1,130.18,35.57Zm.06-9.7a4,4,0,0,0,0,7.92,3.79,3.79,0,0,0,3.88-4A3.79,3.79,0,0,0,130.24,25.87Z"/>
        <path class="cls-1" d="M146.61,35.36V29.07c0-2.06-1-3.24-2.82-3.24a3.28,3.28,0,0,0-3.17,3.28v6.25h-1.8v-11h1.53l.12,1.29A4.83,4.83,0,0,1,144,24.1c2.64,0,4.41,1.92,4.41,4.78v6.48Z"/>
        <polygon class="cls-1" points="158.23 35.27 154.1 30.36 152.87 30.39 152.87 35.27 151.24 35.27 151.24 21.68 152.87 21.68 152.87 28.83 154.18 28.83 157.81 24.43 159.69 24.39 159.88 24.39 155.54 29.61 160.26 35.27 158.23 35.27"/>
        <polygon class="cls-1" points="51.6 18.58 51.6 4.51 60.52 4.51 60.52 6.3 53.42 6.3 53.42 10.66 59.13 10.66 59.13 12.43 53.42 12.43 53.42 18.58 51.6 18.58"/>
        <g>
          <path class="cls-2" d="M98,38.61h4.38v1.22H99.34v1.78h2.87v1.21H99.34v2h3.08v1.22H98Z"/>
          <path class="cls-2" d="M107.23,38.61h1.3v7.48h-1.3Z"/>
          <path class="cls-2" d="M113.32,38.61h4.38v1.22h-3.08v1.78h2.86v1.21h-2.86v2h3.08v1.22h-4.38Z"/>
          <path class="cls-2" d="M122.51,38.61h1.39L127.14,44V38.61h1.3v7.48h-1.37l-3.26-5.23v5.23h-1.3Z"/>
          <path class="cls-2" d="M132.3,38.61h1.9c2.58,0,4.14,1.54,4.14,3.74s-1.66,3.74-4.14,3.74h-1.9Zm2,6.26a2.53,2.53,0,1,0,0-5h-.69v5Z"/>
          <path class="cls-2" d="M141.35,42.35a3.8,3.8,0,1,1,7.59,0,3.8,3.8,0,1,1-7.59,0Zm6.25,0A2.47,2.47,0,1,0,145.15,45,2.53,2.53,0,0,0,147.6,42.35Z"/>
          <path class="cls-2" d="M152.34,38.61H154l2.07,5.68,2-5.68h1.7v7.48h-1.3v-5l-1.86,5h-1.19l-1.86-5v5h-1.31Z"/>
        </g>
        <g>
          <polygon class="cls-3" points="18.68 5.04 20.51 33.91 30.09 25.25 25.34 1.25 18.68 5.04"/>
          <polygon class="cls-4" points="0.07 29.12 20.51 33.91 18.68 5.04 5.24 3.27 0.07 29.12"/>
          <path class="cls-5" d="M18.68,5,5.24,3.27l4.21-2A8.87,8.87,0,0,1,14.74,0l.45,0L25.32,1.26,18.68,5Zm18-2.46L25.34,1.26,26.68,8l-7.51,4.73L3.83,10.26,3.31,12.9l16,2.69,7.79-5.23,1.28,6.47-8.58,6.59L1.91,19.86l-.46,2.3L20,26.08,28.85,19l1.24,6.24-9.58,8.66L.07,29.12c-.44,3.39,1.22,6.27,4.46,7l22,5.78A12,12,0,0,0,41,30V6.52C41,4,39.24,2.78,36.7,2.57Z"/>
        </g>
      </g>
    </g>
  </g>
</svg>
