<svg data-v-423bf9ae="" xmlns="http://www.w3.org/2000/svg" viewBox="0 0 652 90" class="iconLeft"><!----><!----><!----><g data-v-423bf9ae="" id="358200b0-7bb9-4b28-bc9a-192714bf94ac" fill="#2B1200" transform="matrix(4.979253427292024,0,0,4.979253427292024,105.12032029166033,-3.7717838954077365)"><path d="M10.14 15.82L5.56 11.24L0.98 15.82L0.98 4.07C0.98 3.92 1.11 3.79 1.25 3.79L2.87 3.79C3.02 3.79 3.14 3.92 3.14 4.07L3.14 10.61L5.56 8.19L7.98 10.61L7.98 4.07C7.98 3.92 8.11 3.79 8.26 3.79L9.87 3.79C10.02 3.79 10.14 3.92 10.14 4.07ZM20.09 11.16C20.09 11.00 19.96 10.89 19.81 10.89L18.89 10.89L17.18 4.05L17.16 3.98C17.12 3.88 17.02 3.81 16.91 3.81L15.08 3.81C14.97 3.81 14.87 3.88 14.83 3.98L14.81 4.06L11.97 15.41C11.97 15.43 11.97 15.44 11.96 15.44L11.96 15.50C11.96 15.67 12.08 15.79 12.22 15.79L13.92 15.79C14.03 15.79 14.14 15.71 14.17 15.60C14.17 15.58 14.18 15.57 14.18 15.57L14.80 13.06L17.19 13.06L17.81 15.55L17.82 15.60C17.86 15.71 17.96 15.79 18.07 15.79L19.77 15.79C19.92 15.79 20.03 15.67 20.03 15.50L20.03 15.47L20.02 15.40L19.43 13.06L19.81 13.06C19.96 13.06 20.09 12.95 20.09 12.80ZM15.34 10.89L16.00 8.30L16.65 10.89ZM29.92 4.06C29.92 4.10 29.92 4.13 29.90 4.17L29.88 4.21L26.84 10.05L26.38 10.96L23.94 15.62L23.93 15.67C23.93 15.68 23.93 15.68 23.91 15.68C23.87 15.75 23.79 15.81 23.69 15.81L21.84 15.81C21.69 15.81 21.57 15.68 21.57 15.51C21.57 15.48 21.57 15.46 21.59 15.43L21.63 15.34L24.46 9.91L21.59 4.20C21.57 4.14 21.56 4.10 21.56 4.06C21.56 4.03 21.56 3.99 21.57 3.96L21.62 3.88C21.67 3.81 21.74 3.77 21.84 3.77L23.66 3.77C23.76 3.77 23.86 3.82 23.90 3.91L25.70 7.52L27.55 3.95C27.57 3.93 27.57 3.92 27.57 3.92L27.59 3.88C27.64 3.81 27.72 3.77 27.80 3.77L29.65 3.77C29.81 3.77 29.92 3.91 29.92 4.06ZM45.54 5.67C45.54 5.82 45.42 5.95 45.28 5.95L40.77 5.95L43.05 8.69L43.83 8.69C44.03 8.69 44.17 8.81 44.17 8.96L44.17 10.60C44.17 10.75 44.03 10.88 43.83 10.88L39.52 10.88L39.52 15.51C39.52 15.67 39.41 15.81 39.26 15.81L37.62 15.81C37.46 15.81 37.34 15.67 37.34 15.51L37.34 8.69L40.19 8.69L37.34 5.25L37.34 4.06C37.34 3.89 37.46 3.77 37.62 3.77L45.28 3.77C45.42 3.77 45.54 3.89 45.54 4.06ZM51.77 15.82C48.45 15.82 45.75 13.12 45.75 9.80C45.75 6.48 48.45 3.78 51.77 3.78C55.09 3.78 57.79 6.48 57.79 9.80C57.79 13.12 55.09 15.82 51.77 15.82ZM51.77 5.96C49.66 5.96 47.94 7.69 47.94 9.80C47.94 11.91 49.66 13.62 51.77 13.62C53.89 13.62 55.59 11.91 55.59 9.80C55.59 7.69 53.89 5.96 51.77 5.96ZM67.40 15.37L65.17 11.42L64.86 10.89L64.79 10.77C66.82 10.32 67.87 8.82 67.87 7.35C67.87 6.38 67.42 5.46 66.65 4.82C65.87 4.14 64.76 3.79 63.49 3.79L59.40 3.79C59.25 3.79 59.12 3.92 59.12 4.06L59.12 5.17L59.26 5.42L59.26 5.43L61.12 8.71L59.12 8.71L59.12 15.54C59.12 15.69 59.25 15.82 59.40 15.82L61.04 15.82C61.18 15.82 61.31 15.69 61.31 15.54L61.31 10.89L62.36 10.89L62.65 11.42L65.04 15.65L65.07 15.69C65.11 15.76 65.20 15.82 65.30 15.82L67.17 15.82C67.33 15.82 67.44 15.69 67.44 15.53C67.44 15.48 67.44 15.44 67.41 15.40ZM63.34 8.19L62.09 5.98L63.49 5.98C65.00 5.98 65.67 6.69 65.67 7.35C65.67 7.91 65.17 8.53 64.04 8.68C63.91 8.69 63.77 8.71 63.63 8.71ZM78.57 15.82L73.99 11.24L69.41 15.82L69.41 4.07C69.41 3.92 69.54 3.79 69.68 3.79L71.30 3.79C71.46 3.79 71.57 3.92 71.57 4.07L71.57 10.61L73.99 8.19L76.41 10.61L76.41 4.07C76.41 3.92 76.54 3.79 76.69 3.79L78.30 3.79C78.46 3.79 78.57 3.92 78.57 4.07ZM88.38 11.16C88.38 11.00 88.26 10.89 88.10 10.89L87.18 10.89L85.47 4.05L85.46 3.98C85.41 3.88 85.32 3.81 85.20 3.81L83.37 3.81C83.26 3.81 83.16 3.88 83.12 3.98L83.10 4.06L80.26 15.41C80.26 15.43 80.26 15.44 80.25 15.44L80.25 15.50C80.25 15.67 80.37 15.79 80.51 15.79L82.21 15.79C82.32 15.79 82.43 15.71 82.46 15.60C82.46 15.58 82.47 15.57 82.47 15.57L83.09 13.06L85.48 13.06L86.10 15.55L86.11 15.60C86.16 15.71 86.25 15.79 86.37 15.79L88.06 15.79C88.21 15.79 88.33 15.67 88.33 15.50L88.33 15.47L88.31 15.40L87.72 13.06L88.10 13.06C88.26 13.06 88.38 12.95 88.38 12.80ZM83.64 10.89L84.29 8.30L84.94 10.89ZM98.34 15.37L96.11 11.42L95.80 10.89L95.73 10.77C97.76 10.32 98.81 8.82 98.81 7.35C98.81 6.38 98.36 5.46 97.59 4.82C96.81 4.14 95.70 3.79 94.43 3.79L90.34 3.79C90.19 3.79 90.06 3.92 90.06 4.06L90.06 5.17L90.20 5.42L90.20 5.43L92.06 8.71L90.06 8.71L90.06 15.54C90.06 15.69 90.19 15.82 90.34 15.82L91.98 15.82C92.12 15.82 92.25 15.69 92.25 15.54L92.25 10.89L93.30 10.89L93.59 11.42L95.98 15.65L96.01 15.69C96.05 15.76 96.14 15.82 96.24 15.82L98.11 15.82C98.27 15.82 98.38 15.69 98.38 15.53C98.38 15.48 98.38 15.44 98.35 15.40ZM94.28 8.19L93.03 5.98L94.43 5.98C95.94 5.98 96.61 6.69 96.61 7.35C96.61 7.91 96.11 8.53 94.98 8.68C94.85 8.69 94.71 8.71 94.57 8.71ZM103.63 15.81C104.99 15.82 106.34 15.37 107.46 14.45C110.01 12.35 110.39 8.55 108.28 5.99C107.10 4.55 105.36 3.79 103.63 3.79L100.63 3.79C100.48 3.79 100.35 3.92 100.35 4.06L100.35 15.47C100.35 15.67 100.48 15.81 100.63 15.81ZM106.60 7.38C107.94 9.00 107.70 11.42 106.06 12.75C105.36 13.34 104.50 13.64 103.63 13.62L102.54 13.62L102.54 5.98L103.63 5.98C104.73 5.98 105.84 6.45 106.60 7.38Z"></path></g><defs data-v-423bf9ae=""><linearGradient data-v-423bf9ae="" gradientTransform="rotate(25)" id="758a6718-89ec-480e-b095-67c054c6e088" x1="0%" y1="0%" x2="100%" y2="0%"><stop data-v-423bf9ae="" offset="0%" style="stop-color: rgb(121, 35, 0); stop-opacity: 1;"></stop><stop data-v-423bf9ae="" offset="100%" style="stop-color: rgb(243, 112, 0); stop-opacity: 1;"></stop></linearGradient></defs><g data-v-423bf9ae="" id="2ed13756-8622-4f5d-a73f-9cd828247a28" transform="matrix(2.8125,0,0,2.8125,0,0)" stroke="none" fill="url(#758a6718-89ec-480e-b095-67c054c6e088)"><path d="M0 16l16 16 16-16L16 0 0 16zm16 13.172L2.828 16 16 2.828 29.172 16 16 29.172z"></path><path d="M14.751 9.991v4.76h-2.262v-4.76H9.991v12.018h2.498v-4.76h2.262v4.76h2.498v-4.76h2.262v4.76h2.498V9.991h-2.498v4.76h-2.262v-4.76z"></path></g><!----></svg>